<svg width="280" height="222" viewBox="0 0 280 222" fill="none" xmlns="http://www.w3.org/2000/svg">
<g clip-path="url(#clip0_1_23)">
<g clip-path="url(#clip1_1_23)">
<path d="M36.75 0H11.25C5.0368 0 0 5.0368 0 11.25V36.75C0 42.9632 5.0368 48 11.25 48H36.75C42.9632 48 48 42.9632 48 36.75V11.25C48 5.0368 42.9632 0 36.75 0Z" fill="#242938"/>
<mask id="mask0_1_23" style="mask-type:luminance" maskUnits="userSpaceOnUse" x="6" y="5" width="37" height="38">
<path d="M42.1725 5.25H6V42.75H42.1725V5.25Z" fill="white"/>
</mask>
<g mask="url(#mask0_1_23)">
<path d="M27.1419 41.8487C26.193 43.0436 24.2689 42.3889 24.246 40.863L23.9117 18.5452H38.9182C41.6362 18.5452 43.1522 21.6846 41.4621 23.8132L27.1419 41.8487Z" fill="url(#paint0_linear_1_23)"/>
<path d="M27.1419 41.8487C26.193 43.0436 24.2689 42.3889 24.246 40.863L23.9117 18.5452H38.9182C41.6362 18.5452 43.1522 21.6846 41.4621 23.8132L27.1419 41.8487Z" fill="url(#paint1_linear_1_23)" fill-opacity="0.2"/>
<path d="M21.0388 5.93728C21.9877 4.74214 23.9119 5.397 23.9347 6.92289L24.0814 29.2408H9.26256C6.54439 29.2408 5.02841 26.1013 6.71865 23.9726L21.0388 5.93728Z" fill="#3ECF8E"/>
</g>
</g>
<g clip-path="url(#clip2_1_23)">
<path d="M94.75 0H69.25C63.0368 0 58 5.0368 58 11.25V36.75C58 42.9632 63.0368 48 69.25 48H94.75C100.963 48 106 42.9632 106 36.75V11.25C106 5.0368 100.963 0 94.75 0Z" fill="#007ACC"/>
<path d="M68.6146 24.1592L68.5994 26.1249H71.7232H74.847V35.0012V43.8772H77.0566H79.2661V35.0012V26.1249H82.3898H85.5136V24.1973C85.5136 23.1306 85.4909 22.2392 85.4603 22.2163C85.4374 22.1859 81.6355 22.1706 77.026 22.1782L68.6375 22.2011L68.6146 24.1592Z" fill="white"/>
<path d="M96.7313 22.1453C97.9503 22.4501 98.8799 22.9911 99.7332 23.8748C100.175 24.3473 100.83 25.2083 100.884 25.4139C100.899 25.4749 98.8113 26.8768 97.5466 27.6615C97.5008 27.6921 97.3178 27.4939 97.1121 27.1892C96.4951 26.2901 95.8474 25.9014 94.8569 25.833C93.4017 25.7338 92.4646 26.4958 92.4723 27.7682C92.4723 28.1415 92.5255 28.3624 92.6779 28.6673C92.9978 29.3301 93.5922 29.7263 95.4589 30.5338C98.8951 32.0121 100.365 32.9872 101.28 34.3738C102.301 35.9205 102.529 38.3891 101.836 40.2253C101.074 42.2214 99.1846 43.5776 96.5254 44.0272C95.7027 44.172 93.7521 44.1491 92.8684 43.9892C90.9408 43.6462 89.1123 42.6939 87.9846 41.4444C87.5427 40.9567 86.6817 39.6844 86.7351 39.5929C86.7578 39.5625 86.956 39.4406 87.1769 39.3111C87.3903 39.1892 88.198 38.7244 88.9598 38.2824L90.3389 37.4824L90.6284 37.9091C91.0323 38.5262 91.9159 39.372 92.4494 39.6538C93.9807 40.4616 96.0837 40.3472 97.1198 39.4177C97.5618 39.0139 97.7446 38.5948 97.7446 37.9777C97.7446 37.4214 97.6759 37.1777 97.3864 36.7586C97.0131 36.2254 96.2513 35.7757 94.0874 34.8386C91.6113 33.7719 90.5446 33.1091 89.5694 32.0576C89.0056 31.4483 88.4721 30.4729 88.2513 29.6576C88.0684 28.9796 88.0227 27.2805 88.1674 26.5948C88.6778 24.2025 90.4836 22.5339 93.0893 22.0386C93.9351 21.8786 95.9007 21.9396 96.7313 22.1453Z" fill="white"/>
</g>
<g clip-path="url(#clip3_1_23)">
<path d="M152.75 0H127.25C121.037 0 116 5.0368 116 11.25V36.75C116 42.9632 121.037 48 127.25 48H152.75C158.963 48 164 42.9632 164 36.75V11.25C164 5.0368 158.963 0 152.75 0Z" fill="#242938"/>
<path d="M154.758 17.1077C154.682 17.027 154.601 16.9463 154.521 16.8704C154.44 16.7944 154.364 16.709 154.283 16.633C154.203 16.5571 154.127 16.4716 154.046 16.3957C153.965 16.3197 153.889 16.2343 153.808 16.1583C153.728 16.0824 153.652 15.997 153.571 15.921C153.49 15.8451 153.414 15.7596 153.334 15.6837C153.253 15.6077 153.177 15.5223 153.096 15.4463C155.451 17.7603 156.8 20.9081 156.851 24.2091C156.851 32.0745 148.867 38.4733 139.05 38.4733C133.554 38.4733 128.636 36.4654 125.365 33.3182L125.603 33.5556L125.84 33.7929L126.077 34.0301L126.315 34.2675L126.552 34.5049L126.789 34.7423L127.027 34.9796C130.293 38.2596 135.32 40.3719 140.949 40.3719C150.766 40.3719 158.75 33.9733 158.75 26.1315C158.75 22.7801 157.307 19.6046 154.758 17.1077Z" fill="black"/>
<path d="M155.665 24.2089C155.665 31.4287 148.226 37.2817 139.051 37.2817C129.875 37.2817 122.437 31.4287 122.437 24.2089C122.437 19.7327 125.285 15.7785 129.661 13.4335C134.038 11.0886 136.763 8.68671 139.051 8.68671C141.339 8.68671 143.294 10.6471 148.44 13.4335C152.817 15.7785 155.665 19.7327 155.665 24.2089Z" fill="#FBF0DF"/>
<path d="M155.665 24.2089C155.662 23.2813 155.535 22.3584 155.285 21.4652C153.989 37.2722 134.707 38.0316 127.127 33.3037C130.534 35.9451 134.74 37.3479 139.051 37.2816C148.212 37.2816 155.665 31.4194 155.665 24.2089Z" fill="#F6DECE"/>
<path d="M132.657 12.5649C134.779 11.2927 137.598 8.90507 140.37 8.90031C139.944 8.76247 139.499 8.69044 139.051 8.68671C137.902 8.68671 136.677 9.28007 135.135 10.1725C134.598 10.4857 134.043 10.8323 133.454 11.193C132.348 11.8766 131.081 12.6503 129.657 13.424C125.138 15.8687 122.437 19.8988 122.437 24.2089C122.437 24.3988 122.437 24.5886 122.437 24.7738C125.313 14.6108 130.54 13.837 132.657 12.5649Z" fill="#FFFEFC"/>
<path fill-rule="evenodd" clip-rule="evenodd" d="M137.683 9.88764C137.69 11.0085 137.455 12.1175 136.994 13.1391C136.532 14.1607 135.856 15.0707 135.011 15.807C134.878 15.9256 134.983 16.1535 135.154 16.087C136.753 15.4652 138.913 13.6044 138.002 9.84967C137.964 9.63608 137.683 9.69304 137.683 9.88764ZM138.761 9.88764C139.342 10.8353 139.711 11.8974 139.843 13.001C139.975 14.1047 139.866 15.2238 139.525 16.2816C139.468 16.4478 139.672 16.5902 139.786 16.4525C140.826 15.1234 141.733 12.4842 139.017 9.63607C138.88 9.51264 138.666 9.70252 138.761 9.86867V9.88764ZM140.071 9.80694C140.981 10.4509 141.742 11.2824 142.303 12.2454C142.864 13.2083 143.211 14.2804 143.323 15.3892C143.318 15.4292 143.329 15.4695 143.353 15.5017C143.377 15.5339 143.413 15.5557 143.452 15.5624C143.492 15.5691 143.533 15.5603 143.566 15.5378C143.599 15.5153 143.623 15.4808 143.631 15.4414C144.068 13.7848 143.821 10.9604 140.228 9.49367C140.038 9.41771 139.915 9.67404 140.071 9.78797V9.80694ZM131.309 14.7437C132.39 14.4204 133.392 13.873 134.248 13.1369C135.105 12.4008 135.796 11.4926 136.279 10.4715C136.364 10.3006 136.635 10.3671 136.592 10.5569C135.771 14.3544 133.022 15.1471 131.313 15.0427C131.133 15.0475 131.138 14.7959 131.309 14.7437Z" fill="#CCBEA7"/>
<path d="M139.051 38.4731C129.234 38.4731 121.25 32.0743 121.25 24.2089C121.25 19.4621 124.184 15.0332 129.097 12.3797C130.521 11.6203 131.741 10.856 132.828 10.1867C133.426 9.81645 133.991 9.46993 134.536 9.14715C136.203 8.15981 137.627 7.5 139.051 7.5C140.475 7.5 141.718 8.06963 143.275 8.99051C143.75 9.26108 144.225 9.55538 144.733 9.87818C145.914 10.6092 147.248 11.4351 149.005 12.3797C153.918 15.0332 156.851 19.4572 156.851 24.2089C156.851 32.0743 148.867 38.4731 139.051 38.4731ZM139.051 8.68671C137.902 8.68671 136.677 9.28007 135.135 10.1725C134.598 10.4858 134.043 10.8323 133.454 11.193C132.348 11.8766 131.081 12.6503 129.657 13.4241C125.138 15.8687 122.437 19.8988 122.437 24.2089C122.437 31.4194 129.889 37.2864 139.051 37.2864C148.212 37.2864 155.664 31.4194 155.664 24.2089C155.664 19.8988 152.964 15.8687 148.44 13.4335C146.646 12.4842 145.245 11.5918 144.111 10.8893C143.593 10.5712 143.119 10.2769 142.687 10.0158C141.248 9.1614 140.199 8.68671 139.051 8.68671Z" fill="black"/>
<path d="M142.397 27.6742C142.184 28.5476 141.699 29.3304 141.011 29.91C140.495 30.4103 139.827 30.7243 139.112 30.8023C138.376 30.7367 137.685 30.4219 137.152 29.91C136.471 29.3278 135.993 28.5452 135.785 27.6742C135.778 27.6225 135.783 27.5698 135.8 27.5203C135.816 27.471 135.844 27.426 135.88 27.3889C135.917 27.3518 135.962 27.3234 136.011 27.3064C136.06 27.2891 136.113 27.2835 136.165 27.2897H142.022C142.074 27.2842 142.126 27.2904 142.174 27.3081C142.223 27.3255 142.267 27.3538 142.303 27.3909C142.339 27.4279 142.366 27.4727 142.383 27.5216C142.399 27.5707 142.404 27.6229 142.397 27.6742Z" fill="#B71422"/>
<path d="M137.152 29.9479C137.684 30.4599 138.373 30.7778 139.108 30.8498C139.841 30.7766 140.528 30.459 141.059 29.9479C141.228 29.7896 141.387 29.6199 141.533 29.4399C141.241 29.1081 140.884 28.8398 140.484 28.6511C140.084 28.4625 139.649 28.3579 139.207 28.3434C138.734 28.3545 138.271 28.4805 137.858 28.7104C137.444 28.9402 137.093 29.2673 136.834 29.6631C136.943 29.7626 137.038 29.8577 137.152 29.9479Z" fill="#FF6164"/>
<path d="M137.228 29.5729C137.463 29.2686 137.764 29.0218 138.109 28.8508C138.454 28.6796 138.832 28.5891 139.217 28.5855C139.928 28.6065 140.605 28.8926 141.116 29.3876C141.225 29.2689 141.329 29.1456 141.429 29.0222C140.825 28.4471 140.027 28.1201 139.193 28.1061C138.748 28.1098 138.308 28.2124 137.907 28.4061C137.506 28.5997 137.152 28.8799 136.872 29.2264C136.984 29.3482 137.103 29.4639 137.228 29.5729Z" fill="black"/>
<path d="M139.093 31.0871C138.302 31.0177 137.558 30.6832 136.981 30.1376C136.246 29.5162 135.729 28.6764 135.505 27.7406C135.489 27.6572 135.491 27.5713 135.513 27.4892C135.534 27.4071 135.574 27.3307 135.628 27.2659C135.693 27.1873 135.775 27.1247 135.868 27.0827C135.961 27.0407 136.063 27.0206 136.165 27.0238H142.022C142.124 27.0216 142.225 27.0422 142.318 27.0842C142.411 27.126 142.493 27.1881 142.559 27.2659C142.613 27.3309 142.651 27.4074 142.672 27.4897C142.693 27.5719 142.694 27.6576 142.677 27.7406C142.453 28.6764 141.936 29.5162 141.201 30.1376C140.625 30.6823 139.883 31.0166 139.093 31.0871ZM136.165 27.5743C136.089 27.5743 136.07 27.6077 136.065 27.6171C136.266 28.4287 136.72 29.1553 137.361 29.6916C137.83 30.1536 138.439 30.4459 139.093 30.5222C139.746 30.4466 140.355 30.1581 140.826 29.7009C141.465 29.1637 141.917 28.4374 142.117 27.6266C142.107 27.6114 142.093 27.5994 142.076 27.5919C142.059 27.5842 142.04 27.5816 142.022 27.5839L136.165 27.5743Z" fill="black"/>
<path d="M146.275 27.9682C147.809 27.9682 149.052 27.2372 149.052 26.3353C149.052 25.4336 147.809 24.7026 146.275 24.7026C144.742 24.7026 143.499 25.4336 143.499 26.3353C143.499 27.2372 144.742 27.9682 146.275 27.9682Z" fill="#FEBBD0"/>
<path d="M131.907 27.9682C133.44 27.9682 134.684 27.2372 134.684 26.3353C134.684 25.4336 133.44 24.7026 131.907 24.7026C130.373 24.7026 129.13 25.4336 129.13 26.3353C129.13 27.2372 130.373 27.9682 131.907 27.9682Z" fill="#FEBBD0"/>
<path fill-rule="evenodd" clip-rule="evenodd" d="M133.212 25.6804C133.73 25.6813 134.236 25.5287 134.666 25.2418C135.097 24.9549 135.433 24.5469 135.632 24.069C135.831 23.5912 135.883 23.0651 135.783 22.5576C135.682 22.0498 135.434 21.5833 135.068 21.2171C134.702 20.8507 134.236 20.6012 133.729 20.4999C133.221 20.3987 132.695 20.4501 132.217 20.6479C131.739 20.8457 131.33 21.1809 131.042 21.6113C130.755 22.0414 130.601 22.5473 130.601 23.0648C130.601 23.7578 130.876 24.4223 131.366 24.9126C131.855 25.4029 132.519 25.6791 133.212 25.6804ZM144.97 25.6804C145.488 25.6841 145.996 25.5339 146.428 25.2488C146.861 24.9638 147.199 24.5565 147.4 24.0789C147.601 23.6014 147.655 23.0749 147.557 22.5664C147.458 22.0577 147.21 21.5899 146.845 21.2222C146.48 20.8545 146.014 20.6034 145.506 20.5011C144.998 20.3985 144.471 20.4493 143.992 20.6466C143.514 20.844 143.104 21.1792 142.816 21.6097C142.527 22.0402 142.374 22.5467 142.374 23.0648C142.372 23.7557 142.645 24.4187 143.131 24.909C143.618 25.3991 144.279 25.6766 144.97 25.6804Z" fill="black"/>
<path fill-rule="evenodd" clip-rule="evenodd" d="M132.405 23.2309C132.6 23.2318 132.79 23.175 132.952 23.0678C133.115 22.9603 133.241 22.8071 133.316 22.6277C133.391 22.4483 133.412 22.2504 133.374 22.0596C133.337 21.8687 133.244 21.6932 133.106 21.5552C132.969 21.4174 132.794 21.3232 132.603 21.285C132.413 21.2467 132.215 21.2659 132.035 21.3401C131.855 21.4144 131.701 21.5404 131.593 21.702C131.485 21.8636 131.427 22.0537 131.427 22.2484C131.427 22.5081 131.53 22.7574 131.713 22.9416C131.897 23.1257 132.145 23.2298 132.405 23.2309ZM144.163 23.2309C144.358 23.2318 144.548 23.175 144.71 23.0678C144.872 22.9603 144.999 22.8071 145.074 22.6277C145.149 22.4483 145.169 22.2504 145.132 22.0596C145.095 21.8687 145.002 21.6932 144.864 21.5552C144.727 21.4174 144.552 21.3232 144.361 21.285C144.171 21.2467 143.973 21.2659 143.793 21.3401C143.613 21.4144 143.459 21.5404 143.351 21.702C143.243 21.8636 143.185 22.0537 143.185 22.2484C143.185 22.5066 143.287 22.7543 143.468 22.9382C143.649 23.1221 143.896 23.2271 144.154 23.2309H144.163Z" fill="white"/>
</g>
<g clip-path="url(#clip4_1_23)">
<path d="M210.75 0H185.25C179.037 0 174 5.0368 174 11.25V36.75C174 42.9632 179.037 48 185.25 48H210.75C216.963 48 222 42.9632 222 36.75V11.25C222 5.0368 216.963 0 210.75 0Z" fill="#242938"/>
<path d="M198 6.375L215.812 37.2849H180.188L198 6.375Z" fill="white"/>
</g>
<g clip-path="url(#clip5_1_23)">
<path d="M268.75 0H243.25C237.037 0 232 5.0368 232 11.25V36.75C232 42.9632 237.037 48 243.25 48H268.75C274.963 48 280 42.9632 280 36.75V11.25C280 5.0368 274.963 0 268.75 0Z" fill="#677EEB"/>
<path fill-rule="evenodd" clip-rule="evenodd" d="M241.873 30.9718C241.514 30.4048 241.509 29.6826 241.859 29.1101L255.071 7.55993C255.806 6.36131 257.58 6.46611 258.168 7.74289L270.238 33.9236C270.685 34.8951 270.17 36.0381 269.145 36.3456L250.371 41.9779C249.615 42.2044 248.802 41.9008 248.379 41.2346L241.873 30.9718ZM256.595 13.861C256.722 13.2271 257.591 13.1357 257.847 13.7292L266.173 32.9931C266.329 33.3559 266.134 33.7742 265.756 33.8871L252.784 37.7593C252.307 37.9016 251.85 37.485 251.948 36.9971L256.595 13.861Z" fill="#F7FAFC"/>
</g>
<path d="M33.9375 58H14.0625C6.296 58 0 64.296 0 72.0625V91.9375C0 99.704 6.296 106 14.0625 106H33.9375C41.704 106 48 99.704 48 91.9375V72.0625C48 64.296 41.704 58 33.9375 58Z" fill="#398CCB"/>
<path fill-rule="evenodd" clip-rule="evenodd" d="M23.9481 65.0312L30.6115 68.8758V70.9896L38.6769 75.6473V83.6147L40.8404 84.8637V92.557L34.1812 96.4014L31.2248 94.6917L24.0367 98.8418L16.8917 94.7157L13.9767 96.4014L7.31754 92.5504V84.8637L9.39666 83.6634V75.6473L17.2889 71.0911L17.2933 71.0909V68.8758L23.9481 65.0312ZM30.6115 72.9887V76.5647L23.9524 80.4092L17.2933 76.5647V73.0878L17.2889 73.0879L11.1274 76.6469V82.6641L13.9767 81.0192L20.6358 84.8637V92.5504L18.6212 93.7155L24.0367 96.8428L29.4954 93.6918L27.5221 92.5504V84.8637L34.1812 81.0192L36.9461 82.6155V76.6469L30.6115 72.9887ZM29.2529 91.5596V86.867L33.3158 89.2123V93.9048L29.2529 91.5596ZM39.1096 86.8606L35.0467 89.2058V93.9048L39.1096 91.5531V86.8606ZM9.04832 91.5531V86.8606L13.1113 89.2058V93.8983L9.04832 91.5531ZM18.9051 86.8606L14.842 89.2058V93.8983L18.9051 91.5531V86.8606ZM30.1183 85.3678L34.1812 83.0226L38.2442 85.3678L34.1812 87.7152L30.1183 85.3678ZM13.9767 83.0161L9.91369 85.3678L13.9767 87.7086L18.0397 85.3678L13.9767 83.0161ZM19.024 75.5652V70.8726L23.0827 73.2199V77.9103L19.024 75.5652ZM28.8764 70.8726L24.8178 73.2199V77.9082L28.8764 75.5652V70.8726ZM19.8894 69.3754L23.9481 67.0303L28.0111 69.3754L23.9481 71.7207L19.8894 69.3754Z" fill="white"/>
<g clip-path="url(#clip6_1_23)">
<path d="M94.75 58H69.25C63.0368 58 58 63.0368 58 69.25V94.75C58 100.963 63.0368 106 69.25 106H94.75C100.963 106 106 100.963 106 94.75V69.25C106 63.0368 100.963 58 94.75 58Z" fill="#242938"/>
<path d="M82.0002 85.5533C83.9322 85.5533 85.4982 83.9871 85.4982 82.0553C85.4982 80.1235 83.9322 78.5573 82.0002 78.5573C80.0684 78.5573 78.5022 80.1235 78.5022 82.0553C78.5022 83.9871 80.0684 85.5533 82.0002 85.5533Z" fill="#00D8FF"/>
<path fill-rule="evenodd" clip-rule="evenodd" d="M82.0004 74.9431C86.6969 74.9431 91.0598 75.617 94.3495 76.7495C98.3131 78.1141 100.75 80.1824 100.75 82.0553C100.75 84.007 98.1674 86.2043 93.9109 87.6145C90.6931 88.6806 86.4586 89.2371 82.0004 89.2371C77.4295 89.2371 73.101 88.7147 69.8469 87.6027C65.7298 86.1955 63.25 83.9699 63.25 82.0553C63.25 80.1976 65.5768 78.1452 69.4847 76.7828C72.7866 75.6316 77.2572 74.9431 81.9996 74.9431H82.0004Z" stroke="#00D8FF" stroke-width="1.67081"/>
<path fill-rule="evenodd" clip-rule="evenodd" d="M75.809 78.5196C78.1553 74.4513 80.9185 71.0084 83.5431 68.7245C86.7051 65.9726 89.7145 64.8949 91.3368 65.8304C93.0274 66.8054 93.6408 70.1406 92.7361 74.5321C92.0526 77.8523 90.4188 81.7984 88.1914 85.6606C85.9079 89.6202 83.2932 93.1088 80.7044 95.3716C77.4286 98.2351 74.2616 99.2714 72.6031 98.3149C70.9938 97.3876 70.3784 94.3461 71.1504 90.2802C71.8027 86.8446 73.4397 82.6279 75.8082 78.5196H75.809Z" stroke="#00D8FF" stroke-width="1.67081"/>
<path fill-rule="evenodd" clip-rule="evenodd" d="M75.8148 85.6709C73.4619 81.607 71.8599 77.4929 71.1912 74.0784C70.3863 69.9645 70.9554 66.8192 72.5763 65.8809C74.2653 64.9031 77.461 66.0374 80.8139 69.0144C83.3489 71.2652 85.9519 74.651 88.1856 78.5093C90.4757 82.4652 92.1921 86.473 92.8598 89.8457C93.7047 94.114 93.0209 97.3752 91.3639 98.3342C89.7563 99.265 86.8143 98.2797 83.6772 95.5801C81.0267 93.2993 78.1909 89.7752 75.8148 85.6709Z" stroke="#00D8FF" stroke-width="1.67081"/>
</g>
<g clip-path="url(#clip7_1_23)">
<path d="M152.75 58H127.25C121.037 58 116 63.0368 116 69.25V94.75C116 100.963 121.037 106 127.25 106H152.75C158.963 106 164 100.963 164 94.75V69.25C164 63.0368 158.963 58 152.75 58Z" fill="#242938"/>
<path d="M138.772 63.2601C138.691 63.2674 138.435 63.2931 138.204 63.3114C132.878 63.7916 127.889 66.6655 124.729 71.0827C122.969 73.5387 121.844 76.3246 121.419 79.2754C121.268 80.3056 121.25 80.6099 121.25 82.0064C121.25 83.4031 121.268 83.7074 121.419 84.7373C122.438 91.7791 127.449 97.6956 134.245 99.8877C135.462 100.28 136.745 100.547 138.204 100.709C138.772 100.771 141.228 100.771 141.796 100.709C144.315 100.43 146.448 99.8071 148.552 98.7329C148.875 98.5681 148.937 98.524 148.893 98.4874C148.864 98.4653 147.489 96.6214 145.839 94.3928L142.841 90.3423L139.083 84.7814C137.016 81.7242 135.315 79.2241 135.3 79.2241C135.286 79.2205 135.271 81.6912 135.264 84.7081C135.253 89.9903 135.249 90.2029 135.183 90.3274C135.088 90.5071 135.015 90.5804 134.861 90.6612C134.743 90.7197 134.641 90.7307 134.087 90.7307H133.453L133.284 90.6244C133.174 90.5549 133.094 90.4632 133.039 90.3569L132.962 90.1919L132.969 82.8423L132.98 75.4888L133.094 75.3458C133.152 75.2689 133.277 75.1699 133.365 75.1222C133.515 75.0489 133.574 75.0416 134.208 75.0416C134.956 75.0416 135.081 75.0709 135.275 75.2835C135.33 75.3422 137.364 78.4067 139.798 82.0981C142.232 85.7894 145.561 90.8297 147.196 93.304L150.165 97.8019L150.315 97.7029C151.646 96.8378 153.054 95.6061 154.168 94.3231C156.54 91.5994 158.068 88.2784 158.581 84.7373C158.732 83.7074 158.75 83.4031 158.75 82.0064C158.75 80.6099 158.732 80.3056 158.581 79.2754C157.562 72.2337 152.551 66.3173 145.755 64.1252C144.556 63.7366 143.281 63.469 141.851 63.3077C141.499 63.2711 139.076 63.2307 138.772 63.2601ZM146.448 74.6017C146.624 74.6897 146.767 74.8583 146.818 75.0343C146.847 75.1296 146.855 77.1677 146.848 81.7607L146.836 88.3518L145.675 86.5701L144.509 84.7887V79.9977C144.509 76.9002 144.523 75.1589 144.545 75.0746C144.604 74.8693 144.732 74.708 144.908 74.6127C145.059 74.5357 145.114 74.5284 145.689 74.5284C146.232 74.5284 146.327 74.5357 146.448 74.6017Z" fill="white"/>
</g>
<g clip-path="url(#clip8_1_23)">
<path d="M210.75 58H185.25C179.037 58 174 63.0368 174 69.25V94.75C174 100.963 179.037 106 185.25 106H210.75C216.963 106 222 100.963 222 94.75V69.25C222 63.0368 216.963 58 210.75 58Z" fill="#242938"/>
<path fill-rule="evenodd" clip-rule="evenodd" d="M189.562 78.625C190.687 74.1252 193.5 71.875 198 71.875C204.75 71.875 205.594 76.9375 208.969 77.7812C211.219 78.3439 213.188 77.5002 214.875 75.25C213.75 79.7498 210.937 82 206.438 82C199.688 82 198.844 76.9375 195.469 76.0938C193.219 75.5311 191.25 76.3748 189.562 78.625ZM181.125 88.75C182.25 84.2502 185.063 82 189.562 82C196.312 82 197.156 87.0625 200.531 87.9062C202.781 88.4689 204.75 87.6252 206.438 85.375C205.313 89.8748 202.5 92.125 198 92.125C191.25 92.125 190.406 87.0625 187.031 86.2188C184.781 85.6561 182.812 86.4998 181.125 88.75Z" fill="url(#paint2_linear_1_23)"/>
</g>
<path d="M268.75 58H243.25C237.037 58 232 63.0368 232 69.25V94.75C232 100.963 237.037 106 243.25 106H268.75C274.963 106 280 100.963 280 94.75V69.25C280 63.0368 274.963 58 268.75 58Z" fill="#242938"/>
<path d="M270 68V82L263 89L256 96L249 89L256 82L270 68Z" fill="url(#paint3_linear_1_23)"/>
<path d="M270 82V96L263 89L270 82Z" fill="url(#paint4_linear_1_23)"/>
<path d="M256 82L249 89L242 96V68L249 75L256 82Z" fill="url(#paint5_linear_1_23)"/>
<g clip-path="url(#clip9_1_23)">
<path d="M36.75 116H11.25C5.0368 116 0 121.037 0 127.25V152.75C0 158.963 5.0368 164 11.25 164H36.75C42.9632 164 48 158.963 48 152.75V127.25C48 121.037 42.9632 116 36.75 116Z" fill="#242938"/>
<path d="M25.4059 123.399C24.0143 122.006 21.756 122.006 20.3644 123.399L6.26402 137.518C4.87502 138.909 4.87502 141.162 6.26402 142.553L20.2849 156.593C21.6765 157.986 23.9348 157.986 25.3264 156.593L39.4268 142.473C40.8158 141.082 40.8158 138.829 39.4268 137.439L25.4059 123.399Z" fill="#019833"/>
<path d="M30.3317 123.633L29.8281 124.137V125.988L30.2691 126.429H32.5988V128.218L17.1885 143.858V126.452H19.7496L20.2749 125.926V124.053L19.7899 123.677H6.3126L5.87171 124.119V126.032L6.32004 126.481H8.66409V156.559C8.66409 157.693 9.49787 158.653 10.6199 158.813C11.3417 158.916 12.069 158.666 12.576 158.142L44.0625 125.609V124.138L43.5591 123.633L30.3317 123.633Z" fill="white"/>
</g>
<g clip-path="url(#clip10_1_23)">
<path d="M94.75 116H69.25C63.0368 116 58 121.037 58 127.25V152.75C58 158.963 63.0368 164 69.25 164H94.75C100.963 164 106 158.963 106 152.75V127.25C106 121.037 100.963 116 94.75 116Z" fill="#242938"/>
<path d="M64.3217 134.789C64.3217 134.789 63.434 134.149 64.4993 133.295L66.9811 131.075C66.9811 131.075 67.6913 130.328 68.4422 130.979L91.345 148.319V156.634C91.345 156.634 91.3339 157.94 89.6583 157.795L64.3217 134.789Z" fill="#2489CA"/>
<path d="M70.2249 140.148L64.3217 145.515C64.3217 145.515 63.7151 145.967 64.3217 146.773L67.0625 149.266C67.0625 149.266 67.7135 149.965 68.6751 149.17L74.9335 144.424L70.2249 140.148Z" fill="#1070B3"/>
<path d="M80.5889 140.193L91.4153 131.926L91.345 123.656C91.345 123.656 90.8826 121.851 89.3403 122.79L74.9335 135.902L80.5889 140.193Z" fill="#0877B9"/>
<path d="M89.6582 157.807C90.2871 158.45 91.0491 158.239 91.0491 158.239L99.4861 154.082C100.566 153.346 100.414 152.432 100.414 152.432V127.606C100.414 126.515 99.2972 126.138 99.2972 126.138L91.9849 122.613C90.3871 121.625 89.3402 122.79 89.3402 122.79C89.3402 122.79 90.6865 121.821 91.345 123.656V156.482C91.345 156.708 91.2968 156.93 91.2008 157.13C91.0084 157.518 90.5905 157.88 89.5881 157.729L89.6582 157.807Z" fill="#3C99D4"/>
</g>
<g clip-path="url(#clip11_1_23)">
<path d="M152.75 116H127.25C121.037 116 116 121.037 116 127.25V152.75C116 158.963 121.037 164 127.25 164H152.75C158.963 164 164 158.963 164 152.75V127.25C164 121.037 158.963 116 152.75 116Z" fill="#F03C2E"/>
<mask id="mask1_1_23" style="mask-type:luminance" maskUnits="userSpaceOnUse" x="121" y="121" width="38" height="38">
<path d="M158.75 121.25H121.25V158.75H158.75V121.25Z" fill="white"/>
</mask>
<g mask="url(#mask1_1_23)">
<path d="M158.042 138.33L141.67 121.958C141.446 121.734 141.18 121.556 140.887 121.434C140.594 121.313 140.28 121.25 139.963 121.25C139.645 121.25 139.331 121.313 139.038 121.434C138.745 121.556 138.479 121.734 138.255 121.958L134.857 125.356L139.169 129.669C140.172 129.317 141.321 129.557 142.12 130.357C142.5 130.738 142.766 131.218 142.886 131.743C143.007 132.268 142.977 132.816 142.801 133.325L146.957 137.482C147.963 137.135 149.123 137.359 149.926 138.164C150.193 138.431 150.404 138.748 150.549 139.096C150.693 139.445 150.767 139.819 150.767 140.196C150.767 140.574 150.693 140.947 150.548 141.296C150.404 141.645 150.192 141.961 149.925 142.228C149.658 142.495 149.341 142.707 148.993 142.851C148.644 142.996 148.27 143.07 147.893 143.07C147.515 143.07 147.142 142.995 146.793 142.851C146.444 142.706 146.127 142.495 145.861 142.228C145.017 141.384 144.808 140.142 145.235 139.102L141.358 135.226V145.427C141.64 145.566 141.897 145.75 142.12 145.971C142.387 146.238 142.598 146.554 142.743 146.903C142.887 147.252 142.962 147.625 142.962 148.003C142.962 148.38 142.887 148.754 142.743 149.102C142.598 149.451 142.387 149.768 142.12 150.035C141.853 150.302 141.536 150.513 141.188 150.658C140.839 150.802 140.465 150.877 140.088 150.877C139.711 150.877 139.337 150.802 138.988 150.658C138.64 150.513 138.323 150.302 138.056 150.035C137.789 149.768 137.577 149.451 137.432 149.103C137.287 148.754 137.213 148.38 137.213 148.003C137.213 147.625 137.287 147.252 137.432 146.903C137.577 146.554 137.789 146.237 138.056 145.971C138.334 145.694 138.642 145.484 138.997 145.344V135.048C138.655 134.907 138.334 134.7 138.056 134.421C137.652 134.018 137.378 133.504 137.268 132.944C137.158 132.385 137.217 131.805 137.437 131.279L133.183 127.027L121.957 138.242C121.732 138.466 121.554 138.733 121.433 139.026C121.311 139.319 121.249 139.633 121.249 139.95C121.249 140.267 121.311 140.582 121.433 140.875C121.554 141.168 121.732 141.434 121.957 141.658L138.33 158.029C138.554 158.254 138.82 158.431 139.113 158.553C139.406 158.674 139.72 158.737 140.038 158.737C140.355 158.737 140.669 158.674 140.962 158.553C141.255 158.431 141.521 158.254 141.745 158.029L158.042 141.758C158.267 141.534 158.445 141.267 158.566 140.974C158.688 140.681 158.75 140.367 158.75 140.05C158.75 139.733 158.688 139.418 158.566 139.125C158.445 138.832 158.267 138.566 158.042 138.342" fill="white"/>
</g>
</g>
<g clip-path="url(#clip12_1_23)">
<path d="M210.75 116H185.25C179.037 116 174 121.037 174 127.25V152.75C174 158.963 179.037 164 185.25 164H210.75C216.963 164 222 158.963 222 152.75V127.25C222 121.037 216.963 116 210.75 116Z" fill="#242938"/>
<path d="M198 121.625C187.646 121.625 179.25 130.02 179.25 140.375C179.25 148.66 184.622 155.688 192.073 158.167C193.01 158.341 193.354 157.76 193.354 157.265C193.354 156.818 193.336 155.341 193.328 153.774C188.112 154.909 187.011 151.562 187.011 151.562C186.158 149.395 184.929 148.819 184.929 148.819C183.228 147.655 185.057 147.679 185.057 147.679C186.94 147.811 187.932 149.611 187.932 149.611C189.604 152.477 192.318 151.649 193.388 151.17C193.556 149.958 194.042 149.131 194.578 148.662C190.414 148.188 186.036 146.58 186.036 139.396C186.036 137.349 186.768 135.676 187.968 134.363C187.773 133.891 187.131 131.984 188.149 129.401C188.149 129.401 189.724 128.897 193.307 131.323C194.803 130.908 196.407 130.699 198 130.692C199.594 130.699 201.199 130.908 202.697 131.323C206.276 128.897 207.848 129.401 207.848 129.401C208.869 131.984 208.227 133.891 208.032 134.363C209.234 135.676 209.962 137.349 209.962 139.396C209.962 146.598 205.576 148.183 201.4 148.647C202.073 149.229 202.672 150.37 202.672 152.12C202.672 154.628 202.65 156.648 202.65 157.265C202.65 157.764 202.988 158.349 203.938 158.165C211.384 155.683 216.75 148.657 216.75 140.375C216.75 130.02 208.355 121.625 198 121.625ZM186.273 148.335C186.231 148.428 186.085 148.456 185.951 148.392C185.815 148.331 185.739 148.204 185.783 148.111C185.823 148.015 185.97 147.988 186.106 148.052C186.242 148.113 186.32 148.242 186.273 148.335ZM187.195 149.158C187.105 149.241 186.931 149.202 186.812 149.071C186.689 148.941 186.666 148.766 186.757 148.682C186.849 148.599 187.019 148.638 187.142 148.768C187.264 148.901 187.288 149.074 187.195 149.158ZM187.828 150.211C187.713 150.291 187.525 150.216 187.409 150.049C187.294 149.882 187.294 149.683 187.411 149.602C187.528 149.522 187.713 149.594 187.83 149.76C187.945 149.929 187.945 150.129 187.828 150.211ZM188.898 151.43C188.795 151.544 188.576 151.513 188.416 151.359C188.252 151.207 188.206 150.993 188.309 150.88C188.413 150.766 188.633 150.798 188.795 150.951C188.958 151.102 189.007 151.318 188.898 151.43ZM190.281 151.842C190.235 151.989 190.024 152.056 189.812 151.993C189.6 151.929 189.461 151.757 189.504 151.609C189.548 151.461 189.76 151.391 189.974 151.458C190.186 151.522 190.325 151.693 190.281 151.842ZM191.855 152.017C191.86 152.171 191.68 152.299 191.457 152.302C191.233 152.307 191.051 152.182 191.049 152.03C191.049 151.874 191.225 151.747 191.449 151.743C191.672 151.739 191.855 151.863 191.855 152.017ZM193.401 151.957C193.427 152.108 193.273 152.263 193.051 152.305C192.833 152.344 192.632 152.251 192.604 152.101C192.577 151.947 192.735 151.792 192.952 151.752C193.174 151.713 193.373 151.804 193.401 151.957Z" fill="white"/>
</g>
<g clip-path="url(#clip13_1_23)">
<path d="M268.75 116H243.25C237.037 116 232 121.037 232 127.25V152.75C232 158.963 237.037 164 243.25 164H268.75C274.963 164 280 158.963 280 152.75V127.25C280 121.037 274.963 116 268.75 116Z" fill="#FF6C37"/>
<path d="M263.699 132.615L254.223 142.091L251.55 139.419C260.87 130.1 261.79 130.908 263.699 132.615Z" fill="#EEEEEE"/>
<path d="M254.223 142.316C254.155 142.316 254.11 142.293 254.065 142.248L251.371 139.576C251.281 139.486 251.281 139.352 251.371 139.262C260.847 129.785 261.835 130.683 263.834 132.48C263.879 132.525 263.901 132.57 263.901 132.637C263.901 132.705 263.879 132.749 263.834 132.794L254.357 142.248C254.335 142.293 254.267 142.316 254.223 142.316ZM251.865 139.419L254.223 141.777L263.362 132.637C261.701 131.155 260.578 130.706 251.865 139.419Z" fill="#FF6C37"/>
<path d="M256.94 144.808L254.357 142.226L263.834 132.75C266.371 135.309 262.576 139.464 256.94 144.808Z" fill="#EEEEEE"/>
<path d="M256.94 145.033C256.872 145.033 256.828 145.011 256.783 144.966L254.2 142.383C254.155 142.338 254.155 142.293 254.155 142.226C254.155 142.158 254.178 142.114 254.223 142.069L263.699 132.592C263.789 132.503 263.924 132.503 264.013 132.592C264.597 133.131 264.912 133.895 264.889 134.681C264.844 137.173 262.015 140.34 257.119 144.966C257.052 145.011 256.985 145.033 256.94 145.033ZM254.672 142.226C256.109 143.685 256.715 144.27 256.94 144.494C260.712 140.901 264.373 137.218 264.395 134.681C264.418 134.097 264.193 133.513 263.811 133.064L254.672 142.226Z" fill="#FF6C37"/>
<path d="M251.595 139.486L253.504 141.395C253.549 141.44 253.549 141.485 253.504 141.53C253.481 141.552 253.481 141.552 253.459 141.552L249.507 142.406C249.305 142.428 249.125 142.293 249.08 142.091C249.058 141.979 249.103 141.867 249.17 141.799L251.46 139.509C251.505 139.464 251.573 139.441 251.595 139.486Z" fill="#EEEEEE"/>
<path d="M249.439 142.63C249.103 142.63 248.856 142.361 248.856 142.024C248.856 141.867 248.923 141.709 249.035 141.597L251.326 139.307C251.46 139.194 251.64 139.194 251.775 139.307L253.684 141.215C253.818 141.328 253.818 141.53 253.684 141.664C253.639 141.709 253.594 141.732 253.526 141.754L249.574 142.608C249.529 142.608 249.484 142.63 249.439 142.63ZM251.528 139.733L249.327 141.934C249.282 141.979 249.26 142.046 249.305 142.114C249.327 142.181 249.394 142.204 249.462 142.181L253.167 141.373L251.528 139.733Z" fill="#FF6C37"/>
<path d="M268.707 127.36C267.269 125.968 264.956 126.013 263.564 127.473C262.172 128.932 262.217 131.223 263.676 132.615C264.867 133.76 266.663 133.962 268.078 133.109L265.518 130.549L268.707 127.36Z" fill="#EEEEEE"/>
<path d="M266.192 133.85C264.058 133.85 262.329 132.121 262.329 129.988C262.329 127.854 264.058 126.125 266.192 126.125C267.18 126.125 268.145 126.507 268.864 127.203C268.909 127.248 268.931 127.293 268.931 127.36C268.931 127.428 268.909 127.472 268.864 127.517L265.832 130.549L268.213 132.929C268.303 133.019 268.303 133.154 268.213 133.244C268.19 133.266 268.19 133.266 268.168 133.289C267.584 133.648 266.888 133.85 266.192 133.85ZM266.192 126.597C264.305 126.597 262.778 128.124 262.801 130.01C262.801 131.896 264.328 133.423 266.214 133.401C266.731 133.401 267.247 133.289 267.719 133.042L265.361 130.706C265.316 130.661 265.293 130.616 265.293 130.549C265.293 130.482 265.316 130.437 265.361 130.392L268.37 127.383C267.764 126.866 267 126.597 266.192 126.597Z" fill="#FF6C37"/>
<path d="M268.774 127.428L268.729 127.383L265.518 130.549L268.056 133.086C268.303 132.929 268.549 132.75 268.752 132.548C270.189 131.133 270.189 128.842 268.774 127.428Z" fill="#EEEEEE"/>
<path d="M268.078 133.333C268.01 133.333 267.966 133.311 267.921 133.266L265.361 130.706C265.316 130.661 265.293 130.616 265.293 130.549C265.293 130.481 265.316 130.437 265.361 130.392L268.549 127.203C268.639 127.113 268.774 127.113 268.864 127.203L268.931 127.248C270.436 128.752 270.436 131.178 268.954 132.705C268.729 132.929 268.482 133.131 268.213 133.288C268.145 133.311 268.1 133.333 268.078 133.333ZM265.832 130.549L268.1 132.817C268.28 132.705 268.46 132.547 268.594 132.413C269.874 131.133 269.942 129.044 268.707 127.697L265.832 130.549Z" fill="#FF6C37"/>
<path d="M264.081 133.019C263.542 132.48 262.666 132.48 262.127 133.019L253.661 141.485L255.076 142.899L264.036 135.04C264.62 134.546 264.665 133.67 264.171 133.086C264.126 133.064 264.103 133.041 264.081 133.019Z" fill="#EEEEEE"/>
<path d="M255.053 143.124C254.986 143.124 254.941 143.102 254.896 143.057L253.481 141.642C253.392 141.552 253.392 141.418 253.481 141.328L261.947 132.862C262.576 132.233 263.587 132.233 264.215 132.862C264.844 133.491 264.844 134.501 264.215 135.13C264.193 135.152 264.171 135.175 264.148 135.197L255.188 143.057C255.166 143.102 255.121 143.124 255.053 143.124ZM253.976 141.485L255.076 142.585L263.879 134.86C264.373 134.456 264.418 133.715 264.013 133.221C263.609 132.727 262.868 132.682 262.374 133.086C262.352 133.109 262.329 133.131 262.284 133.154L253.976 141.485Z" fill="#FF6C37"/>
<path d="M247.171 151.119C247.081 151.164 247.037 151.253 247.059 151.343L247.441 152.96C247.531 153.185 247.396 153.454 247.149 153.522C246.969 153.589 246.767 153.522 246.655 153.387L244.185 150.939L252.246 142.877L255.031 142.922L256.917 144.809C256.468 145.19 253.751 147.818 247.171 151.119Z" fill="#EEEEEE"/>
<path d="M246.992 153.746C246.812 153.746 246.632 153.678 246.52 153.544L244.072 151.096C244.028 151.051 244.005 151.006 244.005 150.939C244.005 150.872 244.028 150.827 244.072 150.782L252.134 142.72C252.179 142.675 252.246 142.653 252.291 142.653L255.076 142.698C255.143 142.698 255.188 142.72 255.233 142.765L257.119 144.651C257.164 144.696 257.187 144.763 257.187 144.831C257.187 144.898 257.164 144.943 257.097 144.988L256.94 145.123C254.559 147.211 251.326 149.3 247.306 151.298L247.688 152.892C247.755 153.184 247.621 153.499 247.351 153.656C247.216 153.723 247.104 153.746 246.992 153.746ZM244.521 150.939L246.835 153.229C246.902 153.342 247.037 153.387 247.149 153.319C247.261 153.252 247.306 153.117 247.239 153.005L246.857 151.388C246.812 151.186 246.902 151.006 247.081 150.916C251.056 148.918 254.267 146.852 256.625 144.808L254.964 143.147L252.381 143.102L244.521 150.939Z" fill="#FF6C37"/>
<path d="M242.276 152.87L244.207 150.939L247.081 153.813L242.501 153.499C242.298 153.477 242.164 153.297 242.186 153.095C242.186 153.005 242.209 152.915 242.276 152.87Z" fill="#EEEEEE"/>
<path d="M247.082 154.015L242.478 153.701C242.141 153.679 241.917 153.387 241.939 153.05C241.962 152.915 242.006 152.78 242.119 152.691L244.05 150.759C244.14 150.67 244.275 150.67 244.364 150.759L247.239 153.634C247.306 153.701 247.329 153.791 247.284 153.881C247.239 153.971 247.171 154.015 247.082 154.015ZM244.207 151.253L242.433 153.027C242.366 153.072 242.366 153.185 242.433 153.229C242.456 153.252 242.478 153.274 242.523 153.274L246.498 153.544L244.207 151.253Z" fill="#FF6C37"/>
<path d="M251.46 143.91C251.326 143.91 251.236 143.798 251.236 143.686C251.236 143.618 251.258 143.574 251.303 143.529L253.481 141.35C253.571 141.26 253.706 141.26 253.796 141.35L255.211 142.765C255.278 142.832 255.3 142.9 255.278 142.99C255.255 143.057 255.188 143.124 255.098 143.147L251.505 143.91C251.483 143.91 251.46 143.91 251.46 143.91ZM253.639 141.822L252.157 143.304L254.582 142.787L253.639 141.822Z" fill="#FF6C37"/>
<path d="M255.031 142.922L252.561 143.461C252.381 143.506 252.201 143.394 252.157 143.214C252.134 143.102 252.157 142.99 252.246 142.9L253.616 141.53L255.031 142.922Z" fill="#EEEEEE"/>
<path d="M252.516 143.686C252.201 143.686 251.954 143.439 251.954 143.124C251.954 142.967 252.022 142.832 252.112 142.72L253.481 141.35C253.571 141.26 253.706 141.26 253.796 141.35L255.211 142.765C255.278 142.832 255.3 142.9 255.278 142.99C255.255 143.057 255.188 143.124 255.098 143.147L252.628 143.686C252.583 143.686 252.538 143.686 252.516 143.686ZM253.639 141.822L252.426 143.034C252.381 143.079 252.381 143.124 252.404 143.169C252.426 143.214 252.471 143.237 252.538 143.237L254.604 142.787L253.639 141.822Z" fill="#FF6C37"/>
<path d="M268.797 129.583C268.752 129.449 268.594 129.381 268.46 129.426C268.325 129.471 268.258 129.628 268.303 129.763C268.303 129.785 268.325 129.808 268.325 129.83C268.46 130.1 268.415 130.436 268.235 130.684C268.145 130.796 268.168 130.953 268.258 131.043C268.37 131.133 268.527 131.11 268.617 130.998C268.954 130.571 269.021 130.032 268.797 129.583Z" fill="#FF6C37"/>
</g>
<g clip-path="url(#clip14_1_23)">
<mask id="mask2_1_23" style="mask-type:luminance" maskUnits="userSpaceOnUse" x="0" y="174" width="48" height="48">
<path d="M48 174H0V222H48V174Z" fill="white"/>
</mask>
<g mask="url(#mask2_1_23)">
<path d="M36.75 174H11.25C5.03679 174 0 179.037 0 185.25V210.75C0 216.963 5.03679 222 11.25 222H36.75C42.9632 222 48 216.963 48 210.75V185.25C48 179.037 42.9632 174 36.75 174Z" fill="#242938"/>
<mask id="mask3_1_23" style="mask-type:luminance" maskUnits="userSpaceOnUse" x="7" y="181" width="34" height="34">
<path d="M40.3125 181.5H7.5V214.312H40.3125V181.5Z" fill="white"/>
</mask>
<g mask="url(#mask3_1_23)">
<path d="M9.47434 182.915L27.6304 181.574C29.8607 181.383 30.4337 181.512 31.836 182.531L37.6316 186.614C38.5875 187.316 38.9059 187.508 38.9059 188.272V210.665C38.9059 212.068 38.3962 212.898 36.6122 213.025L15.5282 214.302C14.1895 214.365 13.5519 214.174 12.8507 213.28L8.58281 207.73C7.81731 206.709 7.5 205.944 7.5 205.051V185.147C7.5 183.999 8.00959 183.042 9.47434 182.915Z" fill="white"/>
<path fill-rule="evenodd" clip-rule="evenodd" d="M27.6304 181.575L9.47434 182.916C8.00959 183.042 7.5 183.999 7.5 185.147V205.051C7.5 205.944 7.81731 206.709 8.58281 207.73L12.8507 213.28C13.5519 214.173 14.1895 214.365 15.5282 214.301L36.6126 213.025C38.3953 212.898 38.9061 212.068 38.9061 210.665V188.273C38.9061 187.547 38.6197 187.338 37.7764 186.72L31.836 182.531C30.4339 181.512 29.8607 181.383 27.6304 181.574V181.575ZM16.005 187.906C14.2833 188.022 13.8929 188.048 12.9151 187.253L10.4292 185.276C10.1765 185.02 10.3035 184.701 10.9401 184.637L28.3941 183.362C29.8597 183.234 30.6231 183.744 31.1963 184.191L34.1897 186.36C34.3176 186.424 34.6359 186.806 34.2531 186.806L16.2281 187.891L16.005 187.906ZM13.9979 210.473V191.464C13.9979 190.634 14.2528 190.251 15.016 190.187L35.7188 188.975C36.4209 188.911 36.7382 189.358 36.7382 190.187V209.069C36.7382 209.899 36.6103 210.602 35.4641 210.665L15.6529 211.813C14.5068 211.877 13.9982 211.495 13.9982 210.473H13.9979ZM33.5541 192.483C33.6812 193.058 33.5541 193.632 32.9799 193.697L32.025 193.887V207.922C31.1959 208.368 30.4326 208.623 29.7949 208.623C28.7753 208.623 28.5206 208.304 27.7571 207.347L21.513 197.523V207.028L23.4883 207.476C23.4883 207.476 23.4883 208.624 21.8946 208.624L17.5009 208.879C17.373 208.623 17.5009 207.985 17.9462 207.858L19.0937 207.54V194.973L17.5012 194.844C17.3733 194.27 17.6916 193.441 18.5841 193.376L23.2982 193.059L29.7951 203.01V194.206L28.1391 194.016C28.0112 193.313 28.5206 192.802 29.1572 192.74L33.5541 192.483Z" fill="black"/>
</g>
</g>
</g>
<g clip-path="url(#clip15_1_23)">
<path d="M94.75 174H69.25C63.0368 174 58 179.037 58 185.25V210.75C58 216.963 63.0368 222 69.25 222H94.75C100.963 222 106 216.963 106 210.75V185.25C106 179.037 100.963 174 94.75 174Z" fill="#242938"/>
<mask id="mask4_1_23" style="mask-type:luminance" maskUnits="userSpaceOnUse" x="69" y="179" width="26" height="38">
<path d="M94.4425 179.25H69.4375V216.75H94.4425V179.25Z" fill="white"/>
</mask>
<g mask="url(#mask4_1_23)">
<path d="M75.69 216.75C79.1401 216.75 81.94 213.95 81.94 210.5V204.25H75.69C72.24 204.25 69.44 207.05 69.44 210.5C69.44 213.95 72.24 216.75 75.69 216.75Z" fill="#0ACF83"/>
<path d="M69.44 198C69.44 194.55 72.24 191.75 75.69 191.75H81.94V204.25H75.69C72.24 204.25 69.44 201.45 69.44 198Z" fill="#A259FF"/>
<path d="M69.44 185.5C69.44 182.05 72.24 179.25 75.69 179.25H81.94V191.75H75.69C72.24 191.75 69.44 188.95 69.44 185.5Z" fill="#F24E1E"/>
<path d="M81.94 179.25H88.19C91.64 179.25 94.4401 182.05 94.4401 185.5C94.4401 188.95 91.64 191.75 88.19 191.75H81.94V179.25Z" fill="#FF7262"/>
<path d="M94.4401 198C94.4401 201.45 91.64 204.25 88.19 204.25C84.74 204.25 81.94 201.45 81.94 198C81.94 194.55 84.74 191.75 88.19 191.75C91.64 191.75 94.4401 194.55 94.4401 198Z" fill="#1ABCFE"/>
</g>
</g>
<path d="M152.75 174H127.25C121.037 174 116 179.037 116 185.25V210.75C116 216.963 121.037 222 127.25 222H152.75C158.963 222 164 216.963 164 210.75V185.25C164 179.037 158.963 174 152.75 174Z" fill="#4945FF"/>
<path fill-rule="evenodd" clip-rule="evenodd" d="M149.12 188.56H132.96V196.8H141.2V205.04H149.44V188.88C149.44 188.703 149.297 188.56 149.12 188.56Z" fill="white"/>
<path d="M141.2 196.8H140.88V197.12H141.2V196.8Z" fill="white"/>
<path d="M132.96 196.8H140.88C141.057 196.8 141.2 196.943 141.2 197.12V205.04H133.28C133.103 205.04 132.96 204.897 132.96 204.72V196.8Z" fill="#9593FF"/>
<path d="M141.2 205.04H149.44L141.473 213.007C141.372 213.108 141.2 213.036 141.2 212.894V205.04Z" fill="#9593FF"/>
<path d="M132.96 196.8H125.106C124.964 196.8 124.892 196.628 124.993 196.527L132.96 188.56V196.8Z" fill="#9593FF"/>
<path d="M210.75 174H185.25C179.037 174 174 179.037 174 185.25V210.75C174 216.963 179.037 222 185.25 222H210.75C216.963 222 222 216.963 222 210.75V185.25C222 179.037 216.963 174 210.75 174Z" fill="#242938"/>
<path d="M209.625 198.375L198.375 209.625" stroke="white" stroke-width="2.26415" stroke-linecap="round" stroke-linejoin="round"/>
<path d="M207.375 186L186 207.375" stroke="white" stroke-width="2.26415" stroke-linecap="round" stroke-linejoin="round"/>
<path d="M268.75 174H243.25C237.037 174 232 179.037 232 185.25V210.75C232 216.963 237.037 222 243.25 222H268.75C274.963 222 280 216.963 280 210.75V185.25C280 179.037 274.963 174 268.75 174Z" fill="#242938"/>
<path fill-rule="evenodd" clip-rule="evenodd" d="M270.206 204.562C270.206 205.396 269.836 206.222 269.117 206.992C268.398 207.763 267.344 208.463 266.016 209.052C264.687 209.642 263.11 210.11 261.374 210.429C259.638 210.748 257.778 210.912 255.899 210.912C254.02 210.912 252.16 210.748 250.424 210.429C248.688 210.11 247.111 209.642 245.782 209.052C244.453 208.463 243.4 207.763 242.681 206.992C241.962 206.222 241.592 205.396 241.592 204.562C241.592 203.728 241.962 202.903 242.681 202.132C243.4 201.362 244.453 200.662 245.782 200.072C247.111 199.482 248.688 199.015 250.424 198.696C252.16 198.376 254.02 198.212 255.899 198.212C257.778 198.212 259.638 198.376 261.374 198.696C263.11 199.015 264.687 199.482 266.016 200.072C267.344 200.662 268.398 201.362 269.117 202.132C269.836 202.903 270.206 203.728 270.206 204.562Z" fill="url(#paint6_radial_1_23)"/>
<path fill-rule="evenodd" clip-rule="evenodd" d="M245.903 188.986C245.903 188.986 248.156 193.729 253.428 193.595C264.476 193.312 266.414 187.431 266.691 186.582C266.968 185.734 267.392 185.862 267.49 186.647C271.093 220.022 242.484 205.702 241.468 200.017C247.15 198.32 245.764 195.068 245.764 195.068L245.903 188.986Z" fill="url(#paint7_radial_1_23)" stroke="#2E3436" stroke-width="0.8" stroke-miterlimit="10"/>
<path fill-rule="evenodd" clip-rule="evenodd" d="M250.108 203.065C255.391 204.143 258.081 203.143 259.656 201.903C259.24 201.355 258.53 200.754 258.53 200.754C258.53 200.754 260.375 201.277 261.024 202.133C261.672 202.986 261.265 203.512 261.095 204.603C260.718 203.644 260.013 203.285 259.918 202.904C258.502 204.901 254.974 204.818 250.108 203.065Z" fill="url(#paint8_linear_1_23)"/>
<path opacity="0.185393" fill-rule="evenodd" clip-rule="evenodd" d="M266.752 188.487C266.311 189.229 265.649 190.114 264.645 190.962C262.582 192.705 259.118 194.292 253.449 194.437C250.137 194.521 247.998 192.89 246.687 191.437L246.589 195.012C246.696 195.347 246.915 196.125 246.54 197.187C246.137 198.331 244.851 199.5 242.645 200.387C242.841 200.805 243.033 201.222 243.625 201.812C244.431 202.616 245.551 203.483 246.883 204.262C249.548 205.821 252.999 207.057 256.217 207.112C259.435 207.168 262.377 206.125 264.4 203.112C266.265 200.335 267.287 195.634 266.752 188.487Z" stroke="url(#paint9_linear_1_23)" stroke-width="0.8" stroke-miterlimit="10"/>
<path fill-rule="evenodd" clip-rule="evenodd" d="M251.654 196.128C251.654 196.555 251.572 196.979 251.412 197.373C251.252 197.768 251.017 198.127 250.721 198.429C250.425 198.731 250.073 198.971 249.687 199.134C249.3 199.298 248.885 199.382 248.467 199.382C248.048 199.382 247.634 199.298 247.247 199.134C246.86 198.971 246.509 198.731 246.213 198.429C245.917 198.127 245.682 197.768 245.522 197.373C245.362 196.979 245.279 196.555 245.279 196.128C245.279 195.701 245.362 195.278 245.522 194.883C245.682 194.489 245.917 194.13 246.213 193.828C246.509 193.526 246.86 193.286 247.247 193.122C247.634 192.959 248.048 192.875 248.467 192.875C248.885 192.875 249.3 192.959 249.687 193.122C250.073 193.286 250.425 193.526 250.721 193.828C251.017 194.13 251.252 194.489 251.412 194.883C251.572 195.278 251.654 195.701 251.654 196.128Z" fill="url(#paint10_radial_1_23)" stroke="#888A85" stroke-width="0.8" stroke-miterlimit="10"/>
<path fill-rule="evenodd" clip-rule="evenodd" d="M245.305 197.354C246.046 198.403 246.468 199.623 246.476 200.745C246.484 201.868 246.079 202.8 245.348 203.338C244.618 203.875 243.623 203.974 242.582 203.612C241.541 203.25 240.539 202.458 239.797 201.408C239.055 200.359 238.634 199.139 238.626 198.016C238.618 196.894 239.023 195.962 239.754 195.424C240.484 194.886 241.479 194.788 242.52 195.15C243.561 195.512 244.563 196.304 245.305 197.354Z" fill="url(#paint11_radial_1_23)" stroke="black" stroke-width="0.8" stroke-miterlimit="10"/>
<path fill-rule="evenodd" clip-rule="evenodd" d="M250.747 196.61C250.747 196.816 250.707 197.02 250.63 197.21C250.553 197.4 250.44 197.572 250.297 197.718C250.155 197.863 249.986 197.979 249.8 198.057C249.613 198.136 249.414 198.177 249.212 198.177C249.011 198.177 248.811 198.136 248.625 198.057C248.438 197.979 248.269 197.863 248.127 197.718C247.984 197.572 247.871 197.4 247.794 197.21C247.717 197.02 247.677 196.816 247.677 196.61C247.677 196.404 247.717 196.201 247.794 196.011C247.871 195.821 247.984 195.648 248.127 195.502C248.269 195.357 248.438 195.242 248.625 195.163C248.811 195.084 249.011 195.044 249.212 195.044C249.414 195.044 249.613 195.084 249.8 195.163C249.986 195.242 250.155 195.357 250.297 195.502C250.44 195.648 250.553 195.821 250.63 196.011C250.707 196.201 250.747 196.404 250.747 196.61Z" fill="#2E3436" stroke="black" stroke-width="0.8" stroke-miterlimit="10"/>
<path opacity="0.280899" fill-rule="evenodd" clip-rule="evenodd" d="M240.032 196.139C239.531 196.522 239.267 197.169 239.291 198.048C239.314 198.927 239.654 200.003 240.352 200.954C241.05 201.905 241.966 202.54 242.786 202.811C243.606 203.081 244.289 203.005 244.79 202.622C245.291 202.239 245.556 201.561 245.536 200.678C245.516 199.794 245.186 198.74 244.489 197.792C243.793 196.843 242.895 196.223 242.07 195.955C241.245 195.687 240.532 195.756 240.032 196.139Z" stroke="url(#paint12_linear_1_23)" stroke-width="0.8" stroke-miterlimit="10"/>
<path fill-rule="evenodd" clip-rule="evenodd" d="M242.343 197.613C242.343 197.836 242.307 198.057 242.238 198.263C242.168 198.469 242.066 198.656 241.937 198.813C241.809 198.971 241.656 199.096 241.488 199.181C241.319 199.267 241.139 199.311 240.957 199.311C240.775 199.311 240.595 199.267 240.427 199.181C240.259 199.096 240.106 198.971 239.977 198.813C239.848 198.656 239.746 198.469 239.677 198.263C239.607 198.057 239.571 197.836 239.571 197.613C239.571 197.39 239.607 197.17 239.677 196.964C239.746 196.758 239.848 196.571 239.977 196.413C240.106 196.255 240.259 196.13 240.427 196.045C240.595 195.96 240.775 195.916 240.957 195.916C241.139 195.916 241.319 195.96 241.488 196.045C241.656 196.13 241.809 196.255 241.937 196.413C242.066 196.571 242.168 196.758 242.238 196.964C242.307 197.17 242.343 197.39 242.343 197.613Z" fill="white"/>
<path fill-rule="evenodd" clip-rule="evenodd" d="M249.684 195.887C249.684 196.175 249.572 196.451 249.373 196.654C249.174 196.857 248.904 196.972 248.622 196.972C248.34 196.972 248.07 196.857 247.87 196.654C247.671 196.451 247.559 196.175 247.559 195.887C247.559 195.6 247.671 195.324 247.87 195.121C248.07 194.917 248.34 194.803 248.622 194.803C248.904 194.803 249.174 194.917 249.373 195.121C249.572 195.324 249.684 195.6 249.684 195.887Z" fill="white"/>
<path fill-rule="evenodd" clip-rule="evenodd" d="M258.791 196.482C258.792 196.983 258.695 197.48 258.507 197.943C258.319 198.407 258.043 198.828 257.696 199.182C257.348 199.537 256.936 199.818 256.482 200.01C256.028 200.202 255.541 200.301 255.05 200.301C254.558 200.301 254.071 200.202 253.617 200.01C253.163 199.818 252.751 199.537 252.403 199.182C252.056 198.828 251.78 198.407 251.592 197.943C251.404 197.48 251.308 196.983 251.308 196.482C251.308 195.98 251.404 195.484 251.592 195.02C251.78 194.557 252.056 194.136 252.403 193.781C252.751 193.427 253.163 193.145 253.617 192.953C254.071 192.761 254.558 192.662 255.05 192.662C255.541 192.662 256.028 192.761 256.482 192.953C256.936 193.145 257.348 193.427 257.696 193.781C258.043 194.136 258.319 194.557 258.507 195.02C258.695 195.484 258.792 195.98 258.791 196.482Z" fill="url(#paint13_radial_1_23)" stroke="#888A85" stroke-width="0.8" stroke-miterlimit="10"/>
<path fill-rule="evenodd" clip-rule="evenodd" d="M257.726 197.047C257.726 197.289 257.68 197.528 257.589 197.751C257.499 197.974 257.366 198.177 257.199 198.348C257.031 198.519 256.833 198.654 256.614 198.747C256.395 198.839 256.161 198.887 255.925 198.887C255.688 198.887 255.454 198.839 255.235 198.747C255.016 198.654 254.818 198.519 254.65 198.348C254.483 198.177 254.35 197.974 254.26 197.751C254.169 197.528 254.123 197.289 254.123 197.047C254.123 196.806 254.169 196.567 254.26 196.344C254.35 196.121 254.483 195.918 254.65 195.747C254.818 195.576 255.016 195.441 255.235 195.348C255.454 195.256 255.688 195.208 255.925 195.208C256.161 195.208 256.395 195.256 256.614 195.348C256.833 195.441 257.031 195.576 257.199 195.747C257.366 195.918 257.499 196.121 257.589 196.344C257.68 196.567 257.726 196.806 257.726 197.047Z" fill="#2E3436" stroke="black" stroke-width="0.8" stroke-miterlimit="10"/>
<path fill-rule="evenodd" clip-rule="evenodd" d="M256.479 196.199C256.479 196.537 256.347 196.86 256.114 197.099C255.88 197.338 255.562 197.472 255.232 197.472C254.901 197.472 254.584 197.338 254.35 197.099C254.116 196.86 253.984 196.537 253.984 196.199C253.984 195.861 254.116 195.538 254.35 195.299C254.584 195.06 254.901 194.926 255.232 194.926C255.562 194.926 255.88 195.06 256.114 195.299C256.347 195.538 256.479 195.861 256.479 196.199Z" fill="white"/>
<path d="M266.453 207.885L267.179 206.409C264.477 204.392 259.496 202.925 259.496 202.925C258.633 202.514 258.361 203.306 258.959 203.82C258.959 203.82 263.218 206.936 266.453 207.885Z" fill="url(#paint14_linear_1_23)" stroke="#673907" stroke-width="0.800001" stroke-linecap="round"/>
<path d="M269.916 209.246L270.305 208.367L267.289 206.395L267.048 206.375L266.944 206.035C266.506 206.315 265.869 207.355 266.038 207.94L266.364 207.814L266.541 207.988L269.916 209.246Z" fill="url(#paint15_linear_1_23)" stroke="#888A85" stroke-width="0.800001" stroke-linecap="round"/>
<path d="M267.962 207.58L269.964 208.457" stroke="white" stroke-width="0.800001" stroke-linecap="round" stroke-linejoin="round"/>
<path d="M274.3 212.975C273.36 209.718 273.026 207.132 270.569 207.362C268.588 207.547 268.45 210.443 270.496 211.242C272.467 212.012 274.3 212.975 274.3 212.975Z" fill="url(#paint16_radial_1_23)"/>
<path opacity="0.527778" d="M270.716 207.626C270.82 207.595 270.929 207.584 271.036 207.596C271.144 207.608 271.248 207.641 271.344 207.694C271.439 207.747 271.523 207.818 271.591 207.904C271.659 207.99 271.709 208.089 271.74 208.195C271.771 208.301 271.78 208.412 271.769 208.522C271.757 208.632 271.725 208.738 271.673 208.835C271.621 208.932 271.551 209.018 271.467 209.087C271.383 209.157 271.286 209.209 271.182 209.24C271.078 209.271 270.969 209.281 270.861 209.269C270.754 209.258 270.649 209.224 270.554 209.172C270.459 209.119 270.375 209.047 270.307 208.961C270.239 208.875 270.189 208.777 270.158 208.671C270.127 208.565 270.117 208.453 270.129 208.344C270.14 208.234 270.173 208.127 270.225 208.03C270.277 207.933 270.347 207.848 270.431 207.778C270.515 207.709 270.612 207.657 270.716 207.626Z" fill="white"/>
<path d="M267.121 206.429C267.191 206.408 267.265 206.401 267.337 206.409C267.41 206.416 267.481 206.439 267.545 206.475C267.609 206.51 267.666 206.558 267.711 206.616C267.757 206.674 267.792 206.741 267.812 206.813C267.833 206.884 267.84 206.959 267.832 207.033C267.824 207.107 267.802 207.179 267.767 207.245C267.732 207.31 267.685 207.368 267.628 207.415C267.571 207.462 267.506 207.497 267.436 207.518C267.366 207.539 267.292 207.546 267.219 207.538C267.147 207.53 267.076 207.507 267.012 207.472C266.948 207.436 266.891 207.388 266.846 207.33C266.8 207.272 266.765 207.205 266.745 207.134C266.724 207.062 266.717 206.987 266.725 206.913C266.733 206.839 266.755 206.767 266.79 206.701C266.825 206.636 266.872 206.578 266.929 206.531C266.986 206.485 267.051 206.45 267.121 206.429Z" fill="white"/>
<path opacity="0.427778" d="M273.119 211.026C273.119 211.026 272.813 209.857 272.137 209.248C271.898 209.033 272.199 208.716 272.425 208.994C272.912 209.596 273.119 211.026 273.119 211.026Z" fill="url(#paint17_linear_1_23)"/>
<path fill-rule="evenodd" clip-rule="evenodd" d="M255.803 204.401C256.977 204.516 258.037 204.184 258.478 204.022C258.555 203.578 258.899 202.725 260.082 202.669L259.666 201.927C259.666 201.927 258.125 203.005 256.479 203.323L255.803 204.401Z" fill="url(#paint18_linear_1_23)"/>
</g>
<defs>
<linearGradient id="paint0_linear_1_23" x1="23.9117" y1="23.4936" x2="37.2489" y2="29.0872" gradientUnits="userSpaceOnUse">
<stop stop-color="#249361"/>
<stop offset="1" stop-color="#3ECF8E"/>
</linearGradient>
<linearGradient id="paint1_linear_1_23" x1="17.9987" y1="15.3975" x2="24.0812" y2="26.8476" gradientUnits="userSpaceOnUse">
<stop/>
<stop offset="1" stop-opacity="0"/>
</linearGradient>
<linearGradient id="paint2_linear_1_23" x1="190.219" y1="71.875" x2="204.656" y2="92.7812" gradientUnits="userSpaceOnUse">
<stop stop-color="#32B1C1"/>
<stop offset="1" stop-color="#14C6B7"/>
</linearGradient>
<linearGradient id="paint3_linear_1_23" x1="259.5" y1="68" x2="259.5" y2="96" gradientUnits="userSpaceOnUse">
<stop stop-color="#9310FF"/>
<stop offset="1" stop-color="#4601FF"/>
</linearGradient>
<linearGradient id="paint4_linear_1_23" x1="266.5" y1="82" x2="266.5" y2="96" gradientUnits="userSpaceOnUse">
<stop stop-color="#0095FF"/>
<stop offset="1" stop-color="#005CFF"/>
</linearGradient>
<linearGradient id="paint5_linear_1_23" x1="249" y1="68" x2="249" y2="96" gradientUnits="userSpaceOnUse">
<stop stop-color="#FD008F"/>
<stop offset="1" stop-color="#DF00EA"/>
</linearGradient>
<radialGradient id="paint6_radial_1_23" cx="0" cy="0" r="1" gradientUnits="userSpaceOnUse" gradientTransform="translate(255.899 204.562) scale(14.3074 6.35001)">
<stop/>
<stop offset="1" stop-opacity="0"/>
</radialGradient>
<radialGradient id="paint7_radial_1_23" cx="0" cy="0" r="1" gradientUnits="userSpaceOnUse" gradientTransform="translate(250.75 196.852) scale(26.7242 19.9473)">
<stop stop-color="#857C63"/>
<stop offset="1" stop-color="#221F19"/>
</radialGradient>
<linearGradient id="paint8_linear_1_23" x1="260.123" y1="201.756" x2="251.379" y2="203.456" gradientUnits="userSpaceOnUse">
<stop/>
<stop offset="1" stop-opacity="0"/>
</linearGradient>
<linearGradient id="paint9_linear_1_23" x1="249.505" y1="194.301" x2="269.196" y2="216.205" gradientUnits="userSpaceOnUse">
<stop stop-color="white"/>
<stop offset="1" stop-color="white" stop-opacity="0"/>
</linearGradient>
<radialGradient id="paint10_radial_1_23" cx="0" cy="0" r="1" gradientUnits="userSpaceOnUse" gradientTransform="translate(248.467 193.839) scale(4.64293 4.7379)">
<stop stop-color="white"/>
<stop offset="1" stop-color="#B9B9B0"/>
</radialGradient>
<radialGradient id="paint11_radial_1_23" cx="0" cy="0" r="1" gradientUnits="userSpaceOnUse" gradientTransform="translate(241.277 197.681) rotate(-30.5049) scale(3.50569 4.13272)">
<stop stop-color="#5B676B"/>
<stop offset="1" stop-color="#141718"/>
</radialGradient>
<linearGradient id="paint12_linear_1_23" x1="240.731" y1="196.81" x2="244.488" y2="202.148" gradientUnits="userSpaceOnUse">
<stop stop-color="white"/>
<stop offset="1" stop-color="white" stop-opacity="0"/>
</linearGradient>
<radialGradient id="paint13_radial_1_23" cx="0" cy="0" r="1" gradientUnits="userSpaceOnUse" gradientTransform="translate(255.05 193.795) scale(5.4504 5.56188)">
<stop stop-color="white"/>
<stop offset="1" stop-color="#B9B9B0"/>
</radialGradient>
<linearGradient id="paint14_linear_1_23" x1="264.706" y1="204.656" x2="263.022" y2="208.259" gradientUnits="userSpaceOnUse">
<stop stop-color="#6E3D09"/>
<stop offset="0.242424" stop-color="#EA8113"/>
<stop offset="0.621212" stop-color="#5C3307"/>
<stop offset="1" stop-color="#E07C12"/>
</linearGradient>
<linearGradient id="paint15_linear_1_23" x1="268.196" y1="208.598" x2="268.936" y2="207.135" gradientUnits="userSpaceOnUse">
<stop stop-color="#BDBDBD"/>
<stop offset="0.333333" stop-color="#E2E2E2"/>
<stop offset="0.666667" stop-color="#A3A3A3"/>
<stop offset="1" stop-color="#DDDDDD"/>
</linearGradient>
<radialGradient id="paint16_radial_1_23" cx="0" cy="0" r="1" gradientUnits="userSpaceOnUse" gradientTransform="translate(269.982 209.454) rotate(-106.103) scale(3.86947 3.70708)">
<stop stop-color="#696969"/>
<stop offset="1"/>
</radialGradient>
<linearGradient id="paint17_linear_1_23" x1="272.23" y1="208.68" x2="273.177" y2="210.399" gradientUnits="userSpaceOnUse">
<stop stop-color="white"/>
<stop offset="1" stop-color="white" stop-opacity="0"/>
</linearGradient>
<linearGradient id="paint18_linear_1_23" x1="258.281" y1="203.447" x2="256.84" y2="203.787" gradientUnits="userSpaceOnUse">
<stop/>
<stop offset="1" stop-opacity="0"/>
</linearGradient>
<clipPath id="clip0_1_23">
<rect width="280" height="222" fill="white"/>
</clipPath>
<clipPath id="clip1_1_23">
<rect width="48" height="48" fill="white"/>
</clipPath>
<clipPath id="clip2_1_23">
<rect width="48" height="48" fill="white" transform="translate(58)"/>
</clipPath>
<clipPath id="clip3_1_23">
<rect width="48" height="48" fill="white" transform="translate(116)"/>
</clipPath>
<clipPath id="clip4_1_23">
<rect width="48" height="48" fill="white" transform="translate(174)"/>
</clipPath>
<clipPath id="clip5_1_23">
<rect width="48" height="48" fill="white" transform="translate(232)"/>
</clipPath>
<clipPath id="clip6_1_23">
<rect width="48" height="48" fill="white" transform="translate(58 58)"/>
</clipPath>
<clipPath id="clip7_1_23">
<rect width="48" height="48" fill="white" transform="translate(116 58)"/>
</clipPath>
<clipPath id="clip8_1_23">
<rect width="48" height="48" fill="white" transform="translate(174 58)"/>
</clipPath>
<clipPath id="clip9_1_23">
<rect width="48" height="48" fill="white" transform="translate(0 116)"/>
</clipPath>
<clipPath id="clip10_1_23">
<rect width="48" height="48" fill="white" transform="translate(58 116)"/>
</clipPath>
<clipPath id="clip11_1_23">
<rect width="48" height="48" fill="white" transform="translate(116 116)"/>
</clipPath>
<clipPath id="clip12_1_23">
<rect width="48" height="48" fill="white" transform="translate(174 116)"/>
</clipPath>
<clipPath id="clip13_1_23">
<rect width="48" height="48" fill="white" transform="translate(232 116)"/>
</clipPath>
<clipPath id="clip14_1_23">
<rect width="48" height="48" fill="white" transform="translate(0 174)"/>
</clipPath>
<clipPath id="clip15_1_23">
<rect width="48" height="48" fill="white" transform="translate(58 174)"/>
</clipPath>
</defs>
</svg>
